<svg width="87" height="43" viewBox="0 0 87 43" fill="none" xmlns="http://www.w3.org/2000/svg">
<rect x="1" y="1" width="85" height="41" rx="19" stroke="#FF6400" stroke-opacity="0.8" stroke-width="2"/>
<path d="M26.1211 30H23.8594V22.1133H15.2578V30H13.0078V12.9375H15.2578V20.2734H23.8594V12.9375H26.1211V30ZM41.5547 14.7891H36.0703V30H33.832V14.7891H28.3594V12.9375H41.5547V14.7891ZM46.9922 12.9375L52.5703 26.8594L58.1484 12.9375H61.0664V30H58.8164V23.3555L59.0273 16.1836L53.4258 30H51.7031L46.1133 16.2188L46.3359 23.3555V30H44.0859V12.9375H46.9922ZM67.3008 28.1602H75.3867V30H65.0391V12.9375H67.3008V28.1602Z" fill="#FF6400" fill-opacity="0.8"/>
</svg>
