<svg width="35" height="51" viewBox="0 0 35 51" fill="none" xmlns="http://www.w3.org/2000/svg">
<path d="M24.4444 50.098C23.4701 50.098 22.8205 49.2329 22.8205 47.9352V39.5002C22.9829 37.77 22.4957 36.4723 21.6837 35.3909C21.1966 34.7421 21.0342 33.8769 21.359 33.2281C21.5213 32.363 22.1709 31.9304 22.6581 31.7141C27.3675 31.0653 31.7521 28.9025 31.7521 18.7372C31.7521 16.3581 31.1026 13.979 29.8034 12.0325C29.3162 11.3836 29.3162 10.5185 29.4786 9.86967C29.9658 8.13942 29.9658 6.40917 29.641 4.67892C28.8291 4.8952 27.5299 5.54405 25.4188 7.49058C25.094 7.92314 24.6068 7.92314 24.1196 7.70686C20.7094 6.40917 16.9743 6.40917 13.5641 7.70686C13.0769 7.92314 12.5897 7.92314 12.1025 7.49058C10.1538 5.54405 8.69227 4.8952 7.8803 4.67892C7.55551 6.40917 7.55551 8.13942 8.04269 9.86967C8.20509 10.7348 8.20508 11.5999 7.71791 12.0325C6.41876 13.979 5.76918 16.3581 5.76918 18.7372C5.76918 28.9025 10.1538 31.0653 14.8632 31.7141C15.5128 31.7141 16 32.363 16.1624 33.2281C16.3248 34.0932 16.1624 34.9583 15.8376 35.3909C15.0256 36.4723 14.7008 37.77 14.7008 39.284V41.2305V41.4468V47.7189C14.7008 49.0166 14.0512 49.8817 13.0769 49.8817C12.1025 49.8817 11.453 49.0166 11.453 47.7189V44.0421C6.58115 45.1236 4.47004 41.4468 3.0085 39.0677C2.35892 37.9863 1.87174 37.1211 1.22217 36.9049C0.410201 36.6886 -0.239374 35.3909 0.0854124 34.3095C0.247807 33.2281 1.22217 32.363 2.03414 32.7955C3.65807 33.4444 4.63243 34.9583 5.60679 36.4723C6.90594 38.8514 8.04269 40.5816 11.453 39.7165V39.5002C11.453 38.2026 11.6153 36.6886 11.9401 35.6072C7.39312 34.3095 2.52132 30.4164 2.52132 18.9535C2.52132 15.7093 3.33328 12.6813 4.79482 10.3022C4.14525 7.2743 4.30764 4.46264 5.282 1.65098C5.4444 1.00213 5.76918 0.569571 6.25636 0.35329C6.90594 0.137009 9.01705 -0.295554 13.4017 3.38123C16.9743 2.29982 20.7094 2.29982 24.1196 3.38123C28.3419 -0.295554 30.6154 0.137009 31.265 0.35329C31.7521 0.569571 32.0769 1.00213 32.2393 1.65098C33.0513 4.46264 33.2137 7.2743 32.7265 10.086C34.188 12.465 35 15.493 35 18.7372C35 31.0653 29.4786 34.3095 25.5812 35.6072C25.906 36.9049 26.0684 38.4188 26.0684 39.7165V47.9352C26.0684 49.2329 25.4188 50.098 24.4444 50.098Z" fill="#FF6400"/>
</svg>
