<svg width="37" height="47" viewBox="0 0 37 47" fill="none" xmlns="http://www.w3.org/2000/svg">
<path fill-rule="evenodd" clip-rule="evenodd" d="M25 18.1195C22.8451 18.1195 20.7784 19.2645 19.2548 21.3028C17.7311 23.3407 16.875 26.1051 16.875 28.9875V42.0291H20.125V28.9875C20.125 27.258 20.6387 25.5996 21.5529 24.3767C22.4671 23.1538 23.707 22.4667 25 22.4667C26.293 22.4667 27.5329 23.1538 28.4471 24.3767C29.3613 25.5996 29.875 27.258 29.875 28.9875V42.0291H33.125V28.9875C33.125 26.1051 32.2689 23.3407 30.7452 21.3028C29.2216 19.2645 27.1549 18.1195 25 18.1195ZM25 13.7723C21.9832 13.7723 19.0899 15.3754 16.9567 18.2288C14.8234 21.0822 13.625 24.9523 13.625 28.9875V44.2027C13.625 45.4032 14.3525 46.3763 15.25 46.3763H21.75C22.6475 46.3763 23.375 45.4032 23.375 44.2027V28.9875C23.375 28.4111 23.5463 27.8581 23.851 27.4506C24.1557 27.043 24.569 26.8139 25 26.8139C25.431 26.8139 25.8443 27.043 26.149 27.4506C26.4537 27.8581 26.625 28.4111 26.625 28.9875V44.2027C26.625 45.4032 27.3525 46.3763 28.25 46.3763H34.75C35.6475 46.3763 36.375 45.4032 36.375 44.2027V28.9875C36.375 24.9523 35.1766 21.0822 33.0433 18.2288C30.9101 15.3754 28.0168 13.7723 25 13.7723Z" fill="#FF6400"/>
<path fill-rule="evenodd" clip-rule="evenodd" d="M0.625 18.1196C0.625 16.9191 1.35254 15.946 2.25 15.946H8.75C9.64746 15.946 10.375 16.9191 10.375 18.1196V44.2027C10.375 45.4032 9.64746 46.3763 8.75 46.3763H2.25C1.35254 46.3763 0.625 45.4032 0.625 44.2027V18.1196ZM3.875 20.2932V42.0291H7.125V20.2932H3.875Z" fill="#FF6400"/>
<path fill-rule="evenodd" clip-rule="evenodd" d="M5.5 5.07788C4.60255 5.07788 3.875 6.05105 3.875 7.2515C3.875 8.45194 4.60255 9.42511 5.5 9.42511C6.39746 9.42511 7.125 8.45194 7.125 7.2515C7.125 6.05105 6.39746 5.07788 5.5 5.07788ZM0.625 7.2515C0.625 3.65014 2.80762 0.730652 5.5 0.730652C8.19238 0.730652 10.375 3.65014 10.375 7.2515C10.375 10.8528 8.19238 13.7723 5.5 13.7723C2.80762 13.7723 0.625 10.8528 0.625 7.2515Z" fill="#FF6400"/>
</svg>
