<svg width="48" height="36" viewBox="0 0 48 36" fill="none" xmlns="http://www.w3.org/2000/svg">
<path d="M43.5 0H4.5C2.01469 0 0 2.01469 0 4.5V31.5C0 33.9853 2.01469 36 4.5 36H43.5C45.9853 36 48 33.9853 48 31.5V4.5C48 2.01469 45.9853 0 43.5 0ZM43.5 4.5V8.32547C41.3979 10.0372 38.0467 12.699 30.8825 18.3089C29.3036 19.5508 26.1761 22.5344 24 22.4996C21.8242 22.5348 18.6957 19.5503 17.1175 18.3089C9.95438 12.6998 6.60234 10.0375 4.5 8.32547V4.5H43.5ZM4.5 31.5V14.0998C6.64819 15.8108 9.69459 18.2119 14.3379 21.8479C16.387 23.4608 19.9755 27.0216 24 26.9999C28.0047 27.0216 31.5477 23.5125 33.6612 21.8486C38.3045 18.2127 41.3517 15.811 43.5 14.0999V31.5H4.5Z" fill="#FF6400"/>
</svg>
