<svg width="48" height="46" viewBox="0 0 48 46" fill="none" xmlns="http://www.w3.org/2000/svg">
<path d="M47.0891 14.3484L25.1517 0.332705C24.4029 -0.108878 23.6038 -0.112921 22.8481 0.332705L0.910686 14.3484C0.348187 14.7077 0 15.3495 0 15.9912V30.0068C0 30.6485 0.348187 31.2903 0.91078 31.6496L22.8482 45.6673C23.597 46.1089 24.3961 46.1129 25.1518 45.6673L47.0892 31.6496C47.6517 31.2904 48 30.6485 48 30.0068V15.9912C47.9999 15.3495 47.6517 14.7077 47.0891 14.3484ZM26.0625 5.67187L42.2142 15.9912L35.0089 20.6118L26.0625 14.8874V5.67187ZM21.9375 5.67187V14.8874L12.991 20.6118L5.78568 15.9912L21.9375 5.67187ZM4.12499 19.6876L9.29464 22.999L4.12499 26.3104V19.6876ZM21.9375 40.3262L5.78568 30.0068L12.991 25.3863L21.9375 31.1107V40.3262ZM24 27.6709L16.7142 22.999L24 18.3271L31.2857 22.999L24 27.6709ZM26.0625 40.3262V31.1107L35.0089 25.3863L42.2142 30.0068L26.0625 40.3262ZM43.8749 26.3104L38.7053 22.999L43.8749 19.6876V26.3104Z" fill="#FF6400"/>
</svg>
