<svg width="39" height="53" viewBox="0 0 39 53" fill="none" xmlns="http://www.w3.org/2000/svg">
<path d="M16.5228 20.9739C16.3399 21.3566 13.9632 26.1225 9.40273 35.2947C8.90504 36.2572 8.30578 36.7442 7.60495 36.7442H0.992805C0.210723 36.7442 -0.236181 35.8745 0.129468 35.0744L7.13774 21.0087C7.15805 21.0087 7.15805 20.9971 7.13774 20.9739L2.67885 12.2075C2.24211 11.303 2.70932 10.5725 3.54219 10.5725H10.1543C10.8958 10.5725 11.5052 11.0479 11.9826 11.9872L16.5228 20.9739ZM38.8578 1.96838L24.2318 31.3058V31.3406L33.5356 50.6592C33.9317 51.4825 33.5559 52.2942 32.6722 52.2942H26.0499C25.278 52.2942 24.6686 51.8304 24.2217 50.8795L14.8367 31.3406C15.1719 30.668 20.0675 20.8116 29.5439 1.74806C30.0111 0.808802 30.6002 0.333374 31.3214 0.333374H37.9945C38.807 0.333374 39.2438 1.11029 38.8578 1.96838Z" fill="#FF6400"/>
</svg>
